<?xml version="1.0" standalone="no"?><!-- Generator: Gravit.io --><svg xmlns="http://www.w3.org/2000/svg" xmlns:xlink="http://www.w3.org/1999/xlink" style="isolation:isolate" viewBox="410 160 460.417 426.511" width="460.417" height="426.511"><path d=" M 603.414 384.076 L 606.177 385.669 L 606.177 385.669 Q 590.21 401.143 590.21 419.121 L 590.21 419.121 L 590.21 419.121 Q 590.21 440.512 614.468 452.346 L 614.468 452.346 L 614.468 452.346 Q 628.592 459.4 646.555 459.4 L 646.555 459.4 L 646.555 459.4 Q 664.517 459.4 677.721 454.166 L 677.721 454.166 L 677.721 454.166 Q 702.592 444.608 705.663 422.079 L 705.663 422.079 L 705.663 422.079 Q 705.97 420.486 705.97 418.893 L 705.97 418.893 L 705.97 418.893 Q 705.97 410.473 699.675 400.688 L 699.675 400.688 L 699.675 400.688 Q 693.38 390.903 679.256 382.71 L 679.256 382.71 L 623.986 350.396 L 623.986 350.396 Q 605.87 339.928 605.87 323.315 L 605.87 323.315 L 605.87 323.315 Q 605.87 306.703 620.302 295.211 L 620.302 295.211 L 620.302 295.211 Q 634.733 283.719 659.297 283.719 L 659.297 283.719 L 659.297 283.719 Q 671.58 283.719 686.011 285.995 L 686.011 285.995 L 698.293 285.995 L 698.907 313.985 L 695.837 313.985 L 695.837 313.985 Q 695.53 303.062 685.243 296.804 L 685.243 296.804 L 685.243 296.804 Q 674.957 290.546 659.451 290.546 L 659.451 290.546 L 659.451 290.546 Q 643.945 290.546 633.505 298.169 L 633.505 298.169 L 633.505 298.169 Q 623.065 305.793 623.065 317.74 L 623.065 317.74 L 623.065 317.74 Q 623.065 329.687 636.575 337.652 L 636.575 337.652 L 693.38 370.877 L 693.38 370.877 Q 727.156 390.675 727.156 418.666 L 727.156 418.666 L 727.156 418.666 Q 727.156 439.602 704.741 454.621 L 704.741 454.621 L 704.741 454.621 Q 685.397 467.592 653.156 467.592 L 653.156 467.592 L 653.156 467.592 Q 633.505 467.592 618.152 462.131 L 618.152 462.131 L 618.152 462.131 Q 589.289 452.118 583.455 427.996 L 583.455 427.996 L 583.455 427.996 Q 582.534 424.355 582.534 418.78 L 582.534 418.78 L 582.534 418.78 Q 582.534 413.204 586.833 403.533 L 586.833 403.533 L 586.833 403.533 Q 591.131 393.861 603.414 384.076 L 603.414 384.076 Z  M 539.19 303.537 L 533.499 304.709 L 533.499 304.709 Q 531.222 297.093 531.222 291.527 L 531.222 291.527 L 531.222 291.527 Q 531.222 285.961 531.791 278.931 L 531.791 278.931 L 531.791 278.931 Q 532.36 271.901 534.352 259.597 L 534.352 259.597 L 534.352 259.597 Q 536.344 247.294 542.035 235.284 L 542.035 235.284 L 542.035 235.284 Q 547.727 223.274 555.125 212.142 L 555.125 212.142 L 555.125 212.142 Q 562.524 201.011 574.191 191.637 L 574.191 191.637 L 574.191 191.637 Q 585.858 182.263 600.085 175.233 L 600.085 175.233 L 600.085 175.233 Q 630.249 160 673.502 160 L 673.502 160 L 673.502 160 Q 760.577 160 815.497 219.466 L 815.497 219.466 L 815.497 219.466 Q 870.417 278.931 870.417 371.498 L 870.417 371.498 L 870.417 371.498 Q 870.417 464.065 805.537 525.288 L 805.537 525.288 L 805.537 525.288 Q 740.658 586.511 641.062 586.511 L 641.062 586.511 L 641.062 586.511 Q 541.466 586.511 475.733 525.581 L 475.733 525.581 L 475.733 525.581 Q 410 464.651 410 367.397 L 410 367.397 L 410 367.397 Q 410 304.709 438.456 256.082 L 438.456 256.082 L 438.456 256.082 Q 466.912 207.455 519.84 179.919 L 519.84 179.919 L 523.255 185.192 L 523.255 185.192 Q 486.262 210.385 470.042 257.84 L 470.042 257.84 L 470.042 257.84 Q 453.822 305.295 453.822 358.609 L 453.822 358.609 L 453.822 358.609 Q 453.822 457.62 506.181 513.278 L 506.181 513.278 L 506.181 513.278 Q 558.54 568.935 640.493 568.935 L 640.493 568.935 L 640.493 568.935 Q 722.446 568.935 774.52 512.985 L 774.52 512.985 L 774.52 512.985 Q 826.595 457.035 826.595 365.639 L 826.595 365.639 L 826.595 365.639 Q 826.595 286.547 785.333 232.062 L 785.333 232.062 L 785.333 232.062 Q 744.072 177.576 668.949 177.576 L 668.949 177.576 L 668.949 177.576 Q 635.371 177.576 608.053 189.879 L 608.053 189.879 L 608.053 189.879 Q 558.54 211.556 542.605 261.355 L 542.605 261.355 L 542.605 261.355 Q 538.052 276.002 538.052 286.547 L 538.052 286.547 L 538.052 286.547 Q 538.052 297.093 539.19 303.537 L 539.19 303.537 Z " fill="rgb(0,0,0)"/></svg>